<svg width="360" height="360" viewBox="0 0 360 360" fill="none" xmlns="http://www.w3.org/2000/svg">
<path d="M270.046 82.0342V82H200.167H193.118H137.448L106.088 138.513L74.7196 82H12L106.088 251.514L168.714 138.667L241.604 138.522L257.679 138.53C271.573 138.53 282.829 151.168 282.829 166.757C282.829 182.346 271.573 194.984 257.679 194.984H219.431L241.782 154.941H178.842L125.123 251.522H270.055C311.763 251.522 345.566 213.576 345.566 166.783C345.557 119.981 311.746 82.0342 270.046 82.0342Z" fill="#41B883"/>
<path d="M270.771 82.0342V82H169.312H157.665H137.173L105.813 137.616L75.4446 81.1027H44L106.813 190.996L152.847 110.714H264.893V110.731C292.461 110.731 314.821 135.827 314.821 166.765C314.821 197.704 292.469 222.791 264.893 222.791H172.544L210.291 154.932H178.559L151.699 203.223L124.839 251.514H270.771C312.48 251.514 346.282 213.567 346.282 166.774C346.282 119.981 312.471 82.0342 270.771 82.0342Z" fill="#35495E"/>
</svg>
