<svg width="40" height="40" viewBox="0 0 40 40" fill="none" xmlns="http://www.w3.org/2000/svg">
<path d="M30.6501 10.0039V10H22.6209H21.8109H15.4142L11.8109 16.4935L8.20663 10H1L11.8109 29.4775L19.0068 16.5112L27.3821 16.4945L29.229 16.4955C30.8255 16.4955 32.1189 17.9475 32.1189 19.7388C32.1189 21.53 30.8255 22.9821 29.229 22.9821H24.8343L27.4025 18.3811H20.1706L13.998 29.4785H30.6511C35.4435 29.4785 39.3275 25.1184 39.3275 19.7417C39.3265 14.3641 35.4415 10.0039 30.6501 10.0039Z" fill="#41B883"/>
<path d="M30.6501 10.0039V10H18.9922H17.654H15.4142L11.8109 16.5053L8.20663 10.0118H4.59357L11.8109 22.5239L17.1004 13.2993H29.9747V13.3013C33.1423 13.3013 35.7115 16.1848 35.7115 19.7398C35.7115 23.2947 33.1433 26.1772 29.9747 26.1772H19.3635L23.7008 18.3801H20.1696L13.9971 29.4775H30.6501C35.4425 29.4775 39.3265 25.1174 39.3265 19.7407C39.3265 14.3641 35.4415 10.0039 30.6501 10.0039Z" fill="#35495E"/>
</svg>
